<?xml version="1.0" standalone="no"?>
<!DOCTYPE svg PUBLIC "-//W3C//DTD SVG 20010904//EN"
 "http://www.w3.org/TR/2001/REC-SVG-20010904/DTD/svg10.dtd">
<svg version="1.0" xmlns="http://www.w3.org/2000/svg"
 width="1024.000000pt" height="1024.000000pt" viewBox="0 0 1024.000000 1024.000000"
 preserveAspectRatio="xMidYMid meet">
<metadata>
Created by potrace 1.16, written by Peter Selinger 2001-2019
</metadata>
<g transform="translate(0.000000,1024.000000) scale(0.100000,-0.100000)"
fill="#000000" stroke="none">
<path d="M0 5120 l0 -5120 5120 0 5120 0 0 5120 0 5120 -5120 0 -5120 0 0
-5120z m3535 4181 c-6 -4 -62 -41 -125 -81 -278 -177 -491 -321 -496 -335 -3
-8 -9 -13 -13 -11 -12 8 -43 -22 -36 -34 5 -9 1 -10 -14 -5 -14 4 -21 2 -21
-6 0 -7 3 -9 7 -6 3 4 17 -3 30 -15 19 -17 23 -19 17 -5 -8 21 9 22 26 2 11
-13 14 -13 27 2 14 17 14 17 9 1 -3 -10 -2 -18 2 -19 4 0 16 -3 27 -5 50 -12
74 -12 83 -1 8 9 2 12 -23 13 -19 0 -31 -4 -28 -9 3 -5 -4 -4 -14 2 -11 6 -23
8 -27 6 -3 -3 -4 -2 -1 2 5 6 30 12 60 14 6 0 21 -2 34 -5 14 -3 30 -1 36 4
14 11 14 -17 1 -39 -7 -11 -5 -11 10 -3 14 8 20 6 29 -11 5 -11 17 -22 25 -24
10 -3 9 -1 -2 7 -20 12 -25 35 -5 24 6 -4 4 2 -5 13 -22 24 -23 33 -3 33 9 0
12 -6 8 -16 -5 -14 -3 -15 16 -5 20 11 21 11 9 -8 -10 -17 -10 -23 2 -35 19
-18 143 -29 137 -13 -2 7 -22 11 -48 10 -40 -2 -42 -1 -19 9 14 6 33 10 44 9
11 -2 16 2 12 8 -4 6 -2 11 4 11 7 0 9 -7 6 -16 -4 -11 -2 -15 8 -11 10 4 12
0 9 -14 -5 -18 -1 -20 36 -18 22 2 41 7 41 12 0 5 -7 7 -15 3 -16 -6 -19 2 -7
21 6 9 13 7 27 -10 10 -12 18 -24 17 -27 -2 -3 8 -6 20 -7 l23 -2 -22 7 c-17
5 -20 11 -13 22 7 11 10 11 10 2 0 -7 8 -12 18 -10 9 2 16 -3 14 -9 -1 -7 2
-13 8 -13 14 0 12 16 -4 33 -13 13 -11 15 12 15 38 0 46 -7 28 -27 -17 -19
-19 -18 37 -12 4 1 8 9 8 19 1 15 2 16 6 0 2 -10 10 -15 19 -11 12 4 12 8 2
21 -11 13 -9 13 13 -1 14 -10 28 -14 31 -11 4 3 18 7 31 8 22 3 24 1 14 -15
-7 -12 -15 -15 -21 -9 -14 14 -29 13 -20 -1 5 -8 -1 -10 -19 -5 -14 3 -28 2
-31 -3 -3 -4 62 -12 144 -17 85 -5 150 -5 150 0 0 5 6 4 13 -1 6 -6 33 -13 59
-15 36 -4 51 -2 63 12 8 9 12 20 8 23 -3 4 -1 7 5 7 7 0 12 -6 12 -12 0 -10 3
-9 9 1 6 9 11 10 15 3 4 -6 14 -9 24 -6 14 5 14 4 3 -4 -8 -6 -20 -8 -28 -5
-7 3 -13 0 -13 -6 0 -6 -7 -8 -15 -5 -8 4 -15 1 -15 -5 0 -6 18 -11 43 -11 23
0 73 -3 111 -7 54 -4 67 -3 61 7 -5 8 1 7 16 -3 28 -17 206 -31 214 -16 4 5
12 9 18 9 7 0 6 -4 -3 -10 -11 -7 -6 -10 20 -11 19 0 43 -2 53 -4 9 -2 17 2
17 8 0 9 2 9 8 1 4 -6 26 -11 50 -12 23 0 44 -1 47 -1 12 -2 20 5 17 14 -1 6
4 2 12 -9 11 -14 25 -17 55 -14 23 2 41 1 41 -2 0 -3 28 -7 63 -8 34 -1 78 -3
97 -6 36 -4 135 -12 250 -21 36 -2 100 -7 143 -10 60 -5 77 -4 77 7 0 10 2 10
9 -1 12 -19 199 -32 206 -14 2 7 10 13 17 13 10 0 10 -2 -1 -9 -19 -12 0 -21
41 -19 18 0 48 -2 66 -6 22 -4 31 -3 27 4 -3 5 1 10 9 10 8 0 17 -4 20 -9 3
-5 21 -9 38 -10 18 0 44 -2 58 -3 14 -2 31 3 38 12 10 13 11 13 6 -2 -5 -16 1
-18 42 -19 27 0 65 -2 84 -4 30 -3 112 -8 335 -20 28 -2 82 -6 120 -9 39 -3
106 -8 150 -11 310 -20 352 -23 420 -30 33 -4 94 -8 135 -10 l75 -3 325 322
c179 176 291 285 250 241 -41 -44 -183 -189 -315 -322 -132 -134 -249 -258
-260 -276 -16 -28 -25 -33 -50 -31 -16 2 -163 13 -325 24 -162 11 -322 23
-355 26 -33 2 -141 11 -240 19 -99 8 -254 19 -345 25 -91 5 -228 15 -305 20
-77 6 -522 38 -990 71 -1006 71 -1258 89 -1455 105 -85 6 -501 34 -519 34 -11
0 -12 -29 -7 -157 3 -87 8 -264 12 -394 l6 -237 37 -10 c20 -6 65 -13 101 -16
36 -3 121 -10 190 -16 69 -6 148 -12 175 -15 28 -2 133 -11 235 -20 251 -20
1653 -138 2080 -175 355 -30 1073 -87 1470 -116 208 -15 284 -24 198 -24 -74
0 -1695 125 -1943 150 -55 5 -208 19 -340 30 -132 11 -319 27 -415 35 -96 8
-479 40 -850 70 -371 30 -719 60 -773 65 -54 6 -113 10 -132 10 l-35 0 -2
-207 -1 -208 -8 285 c-4 157 -12 443 -19 637 -6 194 -8 359 -3 367 25 44 331
258 678 475 123 76 152 93 130 72z m1264 -260 c11 -7 9 -12 -10 -21 -23 -13
-23 -13 -4 -21 11 -4 33 -8 49 -8 23 -1 26 2 17 12 -16 20 -3 27 53 27 l51 0
-28 -19 -28 -18 32 -7 c47 -9 81 -7 74 4 -3 6 -15 10 -26 10 -10 0 -19 5 -19
10 0 12 107 14 114 2 3 -5 -6 -15 -19 -22 -13 -7 -22 -16 -20 -20 9 -15 -25
-19 -80 -10 -30 5 -98 10 -149 11 -129 2 -146 17 -68 59 43 22 43 22 61 11z
m563 -42 c70 -7 125 -15 123 -19 -2 -4 -19 -5 -37 -4 -28 3 -29 2 -8 -4 18 -6
21 -10 11 -16 -10 -7 -10 -10 -1 -16 26 -16 -49 -21 -156 -9 -60 6 -128 12
-152 14 -38 2 -74 15 -43 15 6 0 16 11 21 25 8 22 15 25 62 25 29 0 110 -5
180 -11z m-2079 -567 l38 -7 46 -140 c25 -77 48 -133 51 -125 3 8 21 68 41
134 20 65 39 118 44 117 4 0 34 -1 67 -1 l60 0 0 -210 0 -210 -27 0 c-49 0
-52 7 -54 152 -2 75 -5 135 -7 133 -3 -2 -25 -65 -49 -140 l-44 -136 -37 7
c-20 4 -38 8 -40 9 -1 1 -25 67 -52 146 l-50 144 6 -142 7 -143 -47 0 -46 0 0
53 c0 28 -3 123 -7 210 l-6 157 34 -1 c19 0 51 -3 72 -7z m597 -258 l0 -205
-42 3 -43 3 -3 148 -3 147 -39 -6 -40 -7 0 47 c0 41 2 46 23 46 12 1 36 7 52
15 17 7 45 14 63 14 l32 1 0 -206z m300 174 c57 -29 90 -91 97 -180 6 -79 -9
-138 -48 -182 -83 -96 -240 -32 -269 109 -42 201 70 329 220 253z m760 -982
c173 -82 393 -185 488 -229 94 -44 170 -82 167 -85 -2 -3 -28 7 -57 21 -70 34
-209 97 -214 97 -2 0 -50 23 -106 51 -169 83 -512 241 -525 242 -7 0 -13 4
-13 9 0 4 -7 8 -16 8 -9 0 -12 -5 -8 -12 4 -7 3 -8 -5 -4 -6 4 -9 11 -6 16 3
5 -11 12 -30 16 -28 5 -39 2 -51 -12 -9 -11 -12 -13 -8 -5 4 9 2 12 -7 9 -8
-3 -22 -1 -33 4 -12 6 -22 6 -28 0 -6 -6 3 -14 28 -22 21 -7 99 -41 173 -75
318 -145 515 -237 654 -304 82 -39 150 -71 152 -71 1 0 81 -37 176 -83 96 -46
240 -114 322 -152 81 -38 145 -70 143 -72 -3 -4 -129 53 -411 187 -60 29 -137
65 -170 80 -33 15 -141 66 -240 113 -489 231 -784 363 -860 382 -27 7 -28 8
-10 15 11 5 16 9 10 9 -5 1 -3 6 5 12 8 5 48 8 90 6 73 -3 85 -8 390 -151z
m-169 120 c30 -13 225 -103 434 -201 209 -98 443 -206 520 -240 423 -189 575
-260 575 -269 0 -8 -843 373 -1090 492 -85 41 -231 110 -324 153 -94 44 -172
82 -175 84 -9 10 8 4 60 -19z m-1977 -1546 c3 -223 7 -508 9 -633 2 -219 3
-228 22 -232 20 -4 97 -8 358 -22 l131 -6 -22 36 c-27 47 -92 194 -92 210 0 7
15 -22 33 -63 18 -41 47 -102 65 -134 17 -33 31 -60 29 -61 -1 -1 -122 5 -268
13 l-266 15 -7 291 c-3 160 -8 568 -10 906 -3 424 -2 533 4 350 4 -146 10
-447 14 -670z m3386 -1939 c12 -53 25 -109 29 -126 6 -26 12 -13 42 93 l34
122 30 -6 c17 -3 31 -7 33 -9 1 -1 -18 -72 -44 -158 l-47 -155 -41 6 c-23 2
-43 6 -44 8 -5 4 -72 296 -72 315 0 12 7 14 29 11 29 -4 31 -7 51 -101z m345
61 c33 -4 59 -10 58 -15 -2 -4 -3 -17 -3 -30 0 -23 -1 -23 -60 -14 -33 5 -62
8 -64 6 -2 -2 -7 -19 -11 -37 -7 -32 -6 -33 15 -22 31 16 76 3 105 -32 20 -23
25 -40 25 -82 0 -74 -29 -106 -97 -106 -30 0 -60 7 -80 20 -18 11 -33 21 -33
22 0 2 -4 18 -9 36 -10 33 -10 33 20 27 16 -4 41 -18 54 -31 30 -29 39 -30 66
-3 16 16 20 28 15 52 -7 36 -13 42 -43 51 -15 5 -28 1 -41 -12 -24 -24 -75
-19 -68 7 2 9 10 53 16 98 l12 81 32 -4 c17 -3 58 -8 91 -12z m386 -55 c49
-33 61 -86 30 -128 -14 -18 -19 -34 -14 -38 37 -23 42 -89 10 -126 -46 -54
-159 -38 -192 26 -23 44 -19 59 15 59 23 0 33 -6 40 -25 19 -49 90 -41 90 10
0 26 -14 40 -52 49 -21 5 -28 12 -28 31 0 20 5 24 38 27 30 2 38 7 40 26 2 13
-2 30 -8 38 -16 18 -59 18 -66 -1 -7 -16 -41 -20 -63 -6 -11 7 -11 13 0 32 19
36 40 48 85 49 27 0 53 -8 75 -23z m-4480 -487 c406 -28 882 -58 1159 -71 135
-6 247 -14 250 -16 5 -5 -155 -1 -430 12 -67 3 -96 1 -80 -4 14 -5 57 -10 95
-11 39 -1 115 -7 170 -13 56 -7 128 -12 161 -12 39 0 61 -4 61 -12 0 -7 -15
-10 -41 -8 -93 9 -332 26 -671 50 -198 14 -458 32 -579 41 -195 14 -220 14
-235 0 -15 -13 -37 -14 -173 -4 -87 6 -155 15 -152 20 3 4 16 8 30 8 13 0 24
5 24 10 0 6 19 11 43 11 39 1 40 2 12 9 -56 14 70 11 356 -10z m284 -85 c116
-8 311 -22 435 -30 217 -14 367 -26 815 -61 116 -9 214 -21 220 -26 5 -5 -3
-6 -20 -3 -38 7 -620 52 -905 70 -391 25 -945 67 -950 72 -5 6 65 2 405 -22z
m-641 -211 c13 -12 14 -19 4 -37 -7 -12 -11 -32 -9 -45 4 -37 -16 -52 -71 -52
-47 0 -50 1 -44 23 3 12 11 46 17 75 12 51 13 52 50 52 21 0 45 -7 53 -16z
m4761 -118 c117 -40 208 -97 306 -195 118 -118 176 -231 240 -466 20 -76 48
-143 80 -192 10 -16 23 -23 47 -23 18 0 43 -5 55 -11 27 -14 77 -60 77 -70 0
-5 -12 3 -26 16 -55 51 -127 29 -226 -66 -75 -73 -98 -126 -79 -182 l11 -30
-22 19 c-21 19 -21 19 -11 -1 9 -16 6 -23 -20 -42 -17 -13 -36 -23 -43 -23 -7
0 -14 -4 -16 -8 -1 -4 -34 -23 -73 -42 -38 -19 -73 -39 -77 -45 -5 -6 -8 -6
-9 0 0 6 -3 3 -7 -6 -6 -13 -10 -12 -28 10 l-22 27 137 73 137 74 -1 61 c0 33
3 68 7 76 6 11 -16 31 -85 76 -50 34 -108 69 -127 79 -19 10 -37 21 -40 24 -5
7 -160 93 -225 126 -22 11 -42 22 -45 25 -3 4 -23 17 -45 30 -98 58 -174 111
-222 155 -29 26 -53 42 -53 36 0 -6 -14 3 -31 21 l-30 33 20 -41 c11 -23 26
-48 33 -55 7 -8 19 -23 27 -34 7 -11 -3 -2 -24 20 -138 149 -135 373 7 500 98
88 237 106 403 51z m1208 -102 c62 -20 115 -38 119 -41 9 -5 -29 -95 -44 -104
-6 -4 2 -14 20 -23 17 -9 36 -25 41 -35 9 -15 7 -18 -14 -16 -20 3 -25 -4 -42
-56 -10 -32 -21 -59 -25 -59 -5 0 -8 -14 -8 -31 0 -17 -7 -37 -15 -46 -8 -8
-13 -19 -10 -24 4 -5 2 -9 -3 -9 -5 0 -9 -6 -10 -12 -6 -71 -7 -73 -56 -72
-25 0 -46 -3 -46 -7 0 -3 -12 -12 -28 -18 -35 -15 -55 -70 -35 -97 17 -24 10
-29 -19 -11 -12 8 -48 15 -79 16 -63 2 -86 -14 -99 -71 l-8 -33 -1 33 c-1 18
6 49 14 70 15 34 15 38 -1 49 -12 9 -22 9 -37 2 -28 -16 -67 -18 -67 -5 0 6
-4 4 -9 -3 -8 -12 -11 -9 -16 12 -8 30 -7 34 87 296 72 200 84 215 167 214
l49 -1 22 59 c13 33 27 59 32 59 5 0 60 -16 121 -36z m-6343 -397 c19 -2 40
-5 45 -9 6 -3 25 -6 43 -6 18 0 39 -6 46 -12 10 -7 22 -7 41 0 15 6 29 9 32 7
2 -2 -32 -19 -74 -36 -43 -18 -107 -48 -142 -67 -50 -28 -66 -32 -72 -22 -14
22 -10 117 7 149 13 27 17 29 27 15 7 -9 28 -17 47 -19z m6118 -289 c29 -29 1
-128 -65 -231 -45 -72 -47 -72 -96 -35 -18 14 -18 15 1 48 11 19 32 73 47 120
15 47 32 91 38 98 12 15 59 16 75 0z m-190 -250 c47 -46 109 -108 137 -140 44
-50 55 -56 90 -57 46 -2 55 -8 112 -77 l42 -50 96 12 c56 7 107 9 119 4 31
-11 426 -499 426 -525 0 -5 -4 -4 -9 3 -7 12 -27 10 -117 -7 -60 -11 -196 -34
-303 -50 -195 -31 -228 -41 -255 -84 -19 -29 -66 -198 -60 -212 17 -33 -64 72
-217 281 l-174 239 1 55 c0 35 10 78 26 117 14 34 22 61 18 60 -10 -2 -109
139 -169 240 -51 87 -50 112 7 142 20 11 30 20 22 21 -8 0 -30 -9 -48 -20 -31
-19 -32 -19 -23 -1 6 10 24 24 41 31 29 12 31 11 73 -35 47 -53 167 -220 199
-277 12 -21 28 -38 35 -38 17 0 16 5 -4 36 -15 24 -15 27 2 56 10 17 13 28 7
24 -6 -4 -22 5 -34 20 -13 15 -65 68 -115 119 -59 58 -93 100 -93 113 0 16 -4
20 -17 15 -16 -6 -16 -4 2 18 58 71 77 68 183 -33z m1080 -1033 c47 -60 107
-136 135 -167 33 -39 44 -59 35 -62 -7 -2 -56 -12 -108 -21 -52 -9 -151 -27
-219 -41 -68 -13 -134 -24 -145 -24 -12 0 -33 -6 -48 -14 -20 -11 -28 -11 -32
-3 -2 7 -8 2 -12 -11 l-7 -23 -14 28 c-7 15 -67 100 -133 188 -86 114 -120
168 -120 187 0 16 3 28 8 28 4 -1 64 -76 135 -168 162 -213 167 -218 175 -205
4 5 25 13 47 16 110 16 221 39 230 48 7 7 3 8 -10 4 -15 -5 -16 -4 -6 3 7 5
11 14 7 20 -3 5 1 12 9 16 8 3 17 0 21 -6 5 -7 2 -8 -5 -3 -9 5 -12 2 -9 -11
3 -16 11 -19 58 -16 30 2 57 7 60 10 3 4 25 8 49 9 24 1 46 4 48 7 7 7 -23 36
-31 31 -3 -3 -4 -2 -1 2 3 3 -5 17 -17 30 -20 21 -23 22 -45 8 -13 -9 -23 -11
-23 -6 0 6 9 15 21 21 17 9 18 14 8 27 -11 13 -14 12 -21 -7 -4 -12 -12 -18
-18 -15 -5 3 -10 -2 -10 -12 0 -14 -6 -12 -28 12 -16 17 -27 33 -25 37 2 3 -8
1 -21 -5 -16 -8 -21 -16 -15 -22 5 -5 9 -13 9 -19 0 -5 -13 3 -29 18 -18 17
-34 25 -42 21 -7 -5 -10 -4 -5 3 4 7 -3 8 -24 2 -19 -6 -32 -5 -36 2 -4 6 -3
9 2 5 5 -3 18 2 29 10 13 10 14 14 4 10 -11 -4 -19 5 -28 30 -9 23 -16 31 -21
23 -5 -8 -9 -7 -13 5 -5 11 -3 14 6 9 7 -4 9 -3 4 2 -5 5 -17 9 -27 9 -14 0
-70 47 -70 59 0 1 10 2 23 1 12 -1 22 -8 22 -16 0 -15 14 -29 29 -29 12 0 -39
65 -53 66 -6 1 -16 2 -22 3 -15 2 0 21 17 21 7 0 40 -35 71 -77 93 -126 107
-134 192 -101 l24 9 -23 24 c-27 28 -47 31 -93 12 l-32 -14 -38 56 c-21 31
-28 45 -15 31 13 -14 30 -36 38 -49 16 -23 16 -23 64 -7 52 18 60 15 98 -29
27 -31 21 -3 -7 30 -58 70 -107 138 -85 120 12 -11 61 -69 108 -130z m-424 64
c-3 -23 0 -30 10 -26 7 3 19 0 25 -6 21 -21 23 2 2 24 -25 27 -26 36 -7 36 8
0 15 -3 14 -6 -2 -21 4 -31 18 -31 10 0 14 -5 10 -16 -3 -8 -2 -12 4 -9 6 3
10 -3 10 -14 0 -12 9 -26 20 -33 21 -14 28 -48 9 -48 -6 0 -9 7 -6 15 4 8 2
17 -3 20 -6 4 -10 1 -10 -5 0 -7 -7 -7 -22 1 -19 10 -17 5 10 -25 17 -20 32
-41 32 -47 0 -26 -121 -52 -135 -29 -4 6 -10 8 -15 5 -5 -3 -14 4 -20 15 -15
28 13 28 33 0 13 -19 18 -19 66 -9 28 6 51 14 51 17 0 4 -9 18 -19 31 -16 21
-24 23 -65 18 -44 -6 -65 6 -31 19 8 4 15 12 15 20 0 16 -17 19 -22 4 -5 -15
-48 0 -48 17 0 8 -4 12 -9 8 -5 -3 -12 -1 -16 5 -4 6 -11 7 -17 4 -6 -4 -8 -2
-5 3 4 6 16 13 27 16 11 3 18 2 16 -1 -2 -4 8 -16 22 -26 22 -17 25 -17 19 -3
-7 19 4 22 20 6 8 -8 13 -7 18 2 5 8 4 10 -3 5 -8 -5 -12 0 -12 14 0 18 -3 19
-20 10 -16 -9 -20 -8 -20 5 0 10 5 13 13 9 7 -5 6 0 -3 11 -14 16 -13 17 7 11
12 -4 24 -2 28 4 10 17 13 12 9 -21z m580 -416 c-4 -16 -8 -29 -9 -31 -9 -10
-534 -106 -542 -99 -11 12 19 67 37 67 18 0 138 21 335 60 88 17 119 22 173
29 9 1 10 -7 6 -26z"/>
<path d="M4065 8269 c-15 -16 -21 -39 -23 -98 -3 -67 -1 -80 20 -111 32 -47
76 -53 107 -14 31 40 30 157 -2 205 -28 43 -73 51 -102 18z"/>
<path d="M6590 3064 c-59 -19 -97 -49 -117 -93 -40 -88 -11 -180 87 -282 58
-59 140 -110 465 -289 94 -51 198 -113 233 -137 65 -46 75 -48 43 -7 -25 31
-63 132 -96 254 -61 224 -106 298 -245 405 -157 121 -289 174 -370 149z"/>
</g>
</svg>
